<?xml version="1.0" ?><svg enable-background="new 0 0 512 512" id="Layer_1" version="1.1" viewBox="0 0 512 512" xml:space="preserve" xmlns="http://www.w3.org/2000/svg" xmlns:xlink="http://www.w3.org/1999/xlink"><g opacity="0.74"><g><path d="M256,80.8v245.3H106.9c-9.6,0-17.4-7.8-17.5-17.4c0-3.8,1.2-7.5,3.5-10.5L256,80.8z" fill="#8DC63F"/><g><path d="M248.5,80.8c0,27.8,0,55.5,0,83.3c0,43.9,0,87.7,0,131.6c0,10.1,0,20.3,0,30.4c2.5-2.5,5-5,7.5-7.5     c-30,0-59.9,0-89.9,0c-16.8,0-33.6,0-50.4,0c-2.9,0-5.8,0.1-8.7,0c-9.4-0.5-12.2-10.1-7.2-17.1c14-19.4,28.7-38.2,43-57.4     c24.5-32.7,49.1-65.5,73.6-98.2c10-13.3,19.9-26.6,29.9-39.8c5.1-6.8,10.7-13.5,15.4-20.6c0.2-0.3,0.5-0.7,0.7-1     c2.4-3.3,0.5-8.3-2.7-10.3c-3.8-2.3-7.8-0.5-10.3,2.7c-13.1,17.5-26.2,35-39.4,52.5c-25.1,33.5-50.3,67-75.4,100.6     c-15.8,21.1-31.8,42-47.4,63.2c-12.9,17.5,0,40.2,21,40.3c13.3,0.1,26.6,0,39.8,0c35.2,0,70.5,0,105.7,0c0.7,0,1.4,0,2.2,0     c4.1,0,7.5-3.4,7.5-7.5c0-27.8,0-55.5,0-83.3c0-43.9,0-87.7,0-131.6c0-10.1,0-20.3,0-30.4C263.5,71.1,248.5,71.1,248.5,80.8z" fill="#020202"/></g></g><g><path d="M428.3,308.7c0,9.6-7.8,17.4-17.4,17.4H291v-184l133.1,155.3C426.8,300.5,428.3,304.5,428.3,308.7z" fill="#BEDA7E"/><g><path d="M420.8,308.7c-0.4,9.1-8.3,9.9-15.3,9.9c-8.9,0-17.7,0-26.6,0c-23.6,0-47.1,0-70.7,0     c-5.8,0-11.5,0-17.3,0c2.5,2.5,5,5,7.5,7.5c0-20.7,0-41.3,0-62c0-33,0-66,0-99c0-7.7,0-15.3,0-23c-4.3,1.8-8.5,3.5-12.8,5.3     c15.4,18,30.9,36,46.3,54.1c24,28,48,56,72,84c3.8,4.4,7.5,8.8,11.3,13.2C418.1,301.8,420.6,304.2,420.8,308.7     c0.4,9.6,15.4,9.7,15,0c-0.5-11.9-8.9-19.6-16.2-28.1c-10.3-12.1-20.7-24.1-31-36.2c-24.9-29-49.8-58.1-74.7-87.1     c-5.9-6.8-11.7-13.7-17.6-20.5c-4.3-5.1-12.8-0.9-12.8,5.3c0,20.7,0,41.3,0,62c0,33,0,66,0,99c0,7.7,0,15.3,0,23     c0,4.1,3.4,7.5,7.5,7.5c38.7,0,77.4,0,116.2,0c3.3,0,6.5,0.1,9.7-0.7c11.3-2.8,18.5-12.9,18.9-24.2     C436.2,299,421.2,299.1,420.8,308.7z" fill="#020202"/></g></g><g><g><path d="M256,298.5c9.7,0,9.7-15,0-15C246.4,283.5,246.3,298.5,256,298.5L256,298.5z" fill="#020202"/></g></g><g><path d="M291,80.8v280.3h-35V80.8c0-9.7,7.9-17.5,17.5-17.5C283.2,63.3,291,71.1,291,80.8z" fill="#603913"/><g><path d="M283.5,80.8c0,31.7,0,63.3,0,95c0,50.2,0,100.5,0,150.7c0,11.6,0,23.1,0,34.7c2.5-2.5,5-5,7.5-7.5     c-11.7,0-23.4,0-35,0c2.5,2.5,5,5,7.5,7.5c0-35.3,0-70.7,0-106c0-51.4,0-102.8,0-154.2c0-6.1,0-12.2,0-18.3     c0-2.4,0.1-4.7,1.4-6.9C270.1,67,283.2,70.9,283.5,80.8c0.4,9.6,15.4,9.7,15,0c-0.5-11.8-8.4-22.4-20.3-24.5     c-11.3-2-22.7,3.7-27.5,14.2c-2.5,5.6-2.3,11.2-2.3,17.1c0,19.5,0,39.1,0,58.6c0,57.4,0,114.7,0,172.1c0,14.3,0,28.6,0,42.9     c0,4.1,3.4,7.5,7.5,7.5c11.7,0,23.4,0,35,0c4.1,0,7.5-3.4,7.5-7.5c0-31.7,0-63.3,0-95c0-50.2,0-100.5,0-150.7     c0-11.6,0-23.1,0-34.7C298.5,71.1,283.5,71.1,283.5,80.8z" fill="#020202"/></g></g><g><polygon fill="#F9ED32" points="378.6,80.8 343.6,115.8 291,115.8 291,80.8   "/><g><path d="M373.3,75.5c-11.7,11.7-23.4,23.4-35,35c1.8-0.7,3.5-1.5,5.3-2.2c-17.5,0-35,0-52.6,0     c2.5,2.5,5,5,7.5,7.5c0-11.7,0-23.4,0-35c-2.5,2.5-5,5-7.5,7.5c25.5,0,50.9,0,76.4,0c3.7,0,7.4,0,11.2,0c9.7,0,9.7-15,0-15     c-25.5,0-50.9,0-76.4,0c-3.7,0-7.4,0-11.2,0c-4.1,0-7.5,3.4-7.5,7.5c0,11.7,0,23.4,0,35c0,4.1,3.4,7.5,7.5,7.5     c15.2,0,30.4,0,45.6,0c2.2,0,4.5,0.1,6.8,0c3.2-0.2,5.1-1.8,7.2-3.9c5.9-5.9,11.7-11.7,17.6-17.6c5.3-5.3,10.5-10.5,15.8-15.8     C390.8,79.3,380.2,68.6,373.3,75.5z" fill="#020202"/></g></g><g><g><path d="M291,114.6c9.7,0,9.7-15,0-15C281.4,99.6,281.4,114.6,291,114.6L291,114.6z" fill="#020202"/></g></g><g><path d="M497.2,387.4c-0.1,0.3-0.2,0.6-0.3,0.8c0,0.1,0,0.1-0.1,0.2c-0.1,0.2-0.1,0.5-0.2,0.7    c-0.1,0.5-0.3,0.9-0.5,1.4c-0.1,0.4-0.3,0.9-0.5,1.3c0,0,0,0.1-0.1,0.1c0,0,0,0,0,0c-0.1,0.3-0.2,0.6-0.3,0.9    c0,0.1-0.1,0.2-0.1,0.4c0,0,0,0.1-0.1,0.1c-0.2,0.4-0.3,0.9-0.5,1.3c0,0.1-0.1,0.2-0.1,0.3c-0.1,0.3-0.3,0.6-0.4,0.9    c0,0,0,0.1-0.1,0.1c0,0,0,0.1-0.1,0.1c-0.7,1.5-4.4,8.6-4.6,8.9c0,0,0,0,0,0h-102c-4.8,0-8.8-3.9-8.8-8.8c0-4.9,3.9-8.8,8.8-8.8    H497.2z" fill="#754C29"/><g><path d="M490,385.4c-0.3,1-0.7,2.1-1,3.1c-0.7,1.8-0.6,1.7,0.2-0.4c-0.4,0.9-0.8,1.8-1.1,2.7     c-0.2,0.6-0.4,1.2-0.7,1.8c0.6-1.3,0,0-0.1,0.1c-1.8,3.6-5.4,8.1-5.4,12.2c2.5-2.5,5-5,7.5-7.5c-31.6,0-63.1,0-94.7,0     c-1.3,0-10.7,0.9-8.2-2.3c0.9-1.2,8.2-0.3,9.9-0.3c18.8,0,37.6,0,56.3,0c14.8,0,29.6,0,44.5,0c9.7,0,9.7-15,0-15     c-33.9,0-67.8,0-101.7,0c-6.1,0-12.4-0.7-17.7,3.2c-7.2,5.2-8.8,15.5-3.6,22.6c3.3,4.5,8.2,6.6,13.7,6.7c16.4,0.5,32.9,0,49.4,0     c17.3,0,34.7,0,52,0c4.1,0,7.5-3.4,7.5-7.5c0,0,0,0,0,0c-0.3,1.3-0.7,2.5-1,3.8c1.5-3,3.2-6,4.6-9c0.5-1,0.9-2.1,1.3-3.1     c-0.4,1,1.2-3.1,0.5-1.3c-0.8,2,1.1-2.7,1.1-2.8c0.4-1,0.7-2.1,1-3.1C507.4,380.2,492.9,376.2,490,385.4z" fill="#020202"/></g></g><g><g><path d="M491.1,404.9C491.1,404.9,491.1,404.9,491.1,404.9c0-1.9-0.8-4-2.2-5.3c-0.7-0.7-1.5-1.2-2.4-1.6     c-0.9-0.5-1.9-0.7-2.9-0.6c-1.9,0.1-4,0.7-5.3,2.2c-1.3,1.5-2.2,3.3-2.2,5.3c0,0,0,0,0,0c0,1.9,0.8,3.9,2.2,5.3     c0.7,0.7,1.5,1.2,2.4,1.6c0.9,0.5,1.9,0.7,2.9,0.6c1.9-0.1,4-0.7,5.3-2.2C490.3,408.8,491.1,407,491.1,404.9L491.1,404.9z" fill="#020202"/></g></g><g><path d="M10.7,361.1c-0.2,39.3,24.4,74.4,61.3,87.6h341.6c0.8,0,1.5,0,2.3,0c0.8,0,1.5,0,2.2-0.1    c0.5,0,1.1-0.1,1.6-0.1c0.2,0,0.3,0,0.5,0c0.3,0,0.5,0,0.8-0.1c0.5,0,1-0.1,1.5-0.1c0.7-0.1,1.4-0.1,2.1-0.2c0,0,0.1,0,0.1,0    c0.5-0.1,1-0.1,1.5-0.2c0.1,0,0.3,0,0.5-0.1c0.3,0,0.6-0.1,0.9-0.2c0.6-0.1,1.2-0.2,1.8-0.3c0,0,0.1,0,0.1,0    c0.6-0.1,1.1-0.2,1.7-0.3c0.6-0.1,1.3-0.3,1.9-0.4c0.1,0,0.2,0,0.3-0.1c0.7-0.2,1.4-0.3,2.1-0.5c0.7-0.2,1.4-0.4,2.1-0.6    c0.1,0,0.1,0,0.2-0.1c0.6-0.2,1.2-0.4,1.9-0.6c0.5-0.1,1-0.3,1.4-0.5c0,0,0.1,0,0.1,0c0.3-0.1,0.6-0.2,0.9-0.3    c0.1,0,0.2-0.1,0.3-0.1c0.5-0.1,0.9-0.3,1.3-0.5c0.5-0.2,1.1-0.4,1.6-0.6c0,0,0,0,0.1,0c0.2-0.1,0.4-0.1,0.5-0.2    c0.1,0,0.2-0.1,0.3-0.1c0.4-0.1,0.8-0.3,1.2-0.5c0.1,0,0.1,0,0.2-0.1c0.1,0,0.1-0.1,0.2-0.1c0,0,0,0,0.1,0c0.5-0.2,1-0.4,1.5-0.7    c0.1-0.1,0.3-0.1,0.4-0.2c0.6-0.3,1.1-0.5,1.7-0.8c0,0,0,0,0,0c0.6-0.3,1.3-0.6,1.9-0.9c0.6-0.3,1.3-0.6,1.9-1    c0.6-0.3,1.2-0.6,1.8-1c0,0,0,0,0,0c0.6-0.4,1.3-0.8,1.9-1.1c0.5-0.3,1-0.6,1.5-0.9c0.3-0.2,0.6-0.4,0.8-0.5    c0.3-0.2,0.6-0.4,0.9-0.6c0.3-0.2,0.6-0.4,1-0.7c0.5-0.3,0.9-0.6,1.3-0.9c0.4-0.3,0.9-0.6,1.3-1c0.4-0.3,0.8-0.6,1.2-0.9    c0.3-0.2,0.6-0.5,0.9-0.7c0,0,0,0,0.1,0c0,0,0.1-0.1,0.2-0.1c0.4-0.3,0.7-0.6,1.1-0.9c0.2-0.1,0.3-0.3,0.5-0.4    c0.2-0.1,0.3-0.3,0.5-0.4c0.6-0.5,1.1-0.9,1.6-1.4c0.4-0.3,0.7-0.6,1.1-1c0,0,0.1-0.1,0.1-0.1c0.1-0.1,0.2-0.2,0.3-0.3    c0.4-0.4,0.9-0.8,1.3-1.2c0,0,0.1-0.1,0.1-0.1l0.2-0.2c0.5-0.4,0.9-0.9,1.4-1.4c0.4-0.4,0.7-0.8,1.1-1.1c0.7-0.8,1.4-1.5,2.1-2.3    c0.3-0.3,0.6-0.7,0.9-1c0.1-0.1,0.2-0.2,0.3-0.4c0,0,0,0,0.1-0.1c0.3-0.3,0.5-0.6,0.8-0.9c0.6-0.8,1.3-1.6,1.9-2.5    c0.3-0.4,0.6-0.8,0.9-1.3c0.3-0.4,0.6-0.8,0.8-1.2c0.6-0.9,1.2-1.8,1.8-2.7c0.2-0.4,0.5-0.7,0.7-1.1c0.1-0.2,0.2-0.3,0.3-0.4    c0.2-0.4,0.5-0.7,0.7-1.1c0.2-0.3,0.4-0.7,0.6-1c0.2-0.3,0.4-0.7,0.6-1c0.4-0.7,0.8-1.4,1.1-2.1c0.3-0.5,0.5-0.9,0.7-1.4    c0.2-0.5,0.5-0.9,0.7-1.4c0.2-0.5,0.4-0.9,0.7-1.4c0.2-0.5,0.4-1,0.6-1.4c0-0.1,0.1-0.2,0.1-0.3c-0.7,1.5-4.4,8.6-4.6,8.9    c0,0,0,0,0,0h-102c-4.8,0-8.8-3.9-8.8-8.8c0-4.9,3.9-8.8,8.8-8.8h109.8c0.1-0.4,0.3-0.9,0.4-1.3c0-0.1,0.1-0.3,0.1-0.4    c0.1-0.4,0.3-0.9,0.4-1.3c0.1-0.5,0.3-0.9,0.4-1.4c0.2-0.6,0.3-1.3,0.5-1.9c0.1-0.6,0.3-1.1,0.4-1.7c0.1-0.3,0.2-0.7,0.2-1    c0.1-0.6,0.2-1.2,0.3-1.8c0.1-0.5,0.2-1,0.3-1.5c0,0,0-0.1,0-0.1c0-0.1,0-0.3,0.1-0.4c0.1-0.5,0.2-1.1,0.2-1.6    c0.1-0.4,0.1-0.8,0.1-1.1c0,0,0,0,0-0.1c0.1-0.6,0.1-1.1,0.2-1.7c0-0.4,0.1-0.9,0.1-1.3c0-0.1,0-0.1,0-0.2c0-0.1,0-0.1,0-0.2    c0-0.4,0.1-0.7,0.1-1c0.1-0.6,0.1-1.1,0.1-1.7c0-0.7,0.1-1.5,0.1-2.2c0-0.8,0-1.5,0-2.3H10.7z M343.6,404.9H238.5    c-4.8,0-8.8-3.9-8.8-8.8c0-4.9,3.9-8.8,8.8-8.8h105.1c4.8,0,8.8,3.9,8.8,8.8C352.4,401,348.4,404.9,343.6,404.9z" fill="#A97C50"/><g><path d="M343.6,397.4c-32.3,0-64.6,0-97,0c-1.4,0-10.6,1-9.3-1.8c0.8-1.7,8.3-0.7,10.2-0.7c19.4,0,38.9,0,58.3,0     c9.9,0,19.7,0,29.6,0c2.4,0,4.8-0.2,7.2,0C344.5,395.1,346,397.3,343.6,397.4c-9.6,0.7-9.6,15.7,0,15c10-0.7,18-9.1,15.9-19.6     c-1.6-7.8-8.4-12.7-16.1-13c-5.8-0.2-11.6,0-17.4,0c-23.1,0-46.1,0-69.2,0c-6,0-12.1-0.2-18.1,0c-7.2,0.3-13.8,4.6-15.9,11.7     c-2.8,9.8,4.3,19.8,14.3,20.7c5,0.5,10.2,0.1,15.2,0.1c11.2,0,22.5,0,33.7,0c19.2,0,38.4,0,57.5,0     C353.3,412.4,353.3,397.4,343.6,397.4z" fill="#020202"/><path d="M3.2,361.1c0.1,33.6,16.8,65.1,44.7,83.8c6.5,4.4,14.5,9.1,22.1,11c1,0.3,2,0.2,3,0.3     c2.8,0.1,5.5,0,8.3,0c31.4,0,62.9,0,94.3,0c44.7,0,89.4,0,134.1,0c31.5,0,63,0,94.6,0c9.5,0,18.8-0.1,28.2-1.9     c5.4-1,10.6-2.6,15.7-4.6c1.8-0.7,3.9-1.7,5.5-2.4c1.6-0.7,3.1-1.4,4.6-2.2c0.6-0.3,1.2-0.6,1.8-1c0.3-0.2,3.7-2.2,1.8-1.1     c11-6.7,20.4-15.1,28.1-25.3c4.6-6.1,8.3-12.6,11.2-19.6c3.3-7.8-9.9-13.3-13.7-5.8c-1.8,3.6-5.6,8.5-5.6,12.6     c2.5-2.5,5-5,7.5-7.5c-31.6,0-63.1,0-94.7,0c-1.3,0-10.7,0.9-8.2-2.3c0.9-1.2,8.2-0.3,9.9-0.3c18.8,0,37.6,0,56.3,0     c14.8,0,29.6,0,44.5,0c3.4,0,6.3-2.3,7.2-5.5c3.3-10.8,4.3-17.6,4.4-28.3c0-4.1-3.5-7.5-7.5-7.5c-16.3,0-32.7,0-49,0     c-39,0-78.1,0-117.1,0c-47.2,0-94.4,0-141.6,0c-40.9,0-81.8,0-122.8,0c-19.7,0-39.6-0.7-59.3,0c-0.3,0-0.6,0-0.9,0     c-9.7,0-9.7,15,0,15c16.3,0,32.7,0,49,0c39,0,78.1,0,117.1,0c47.2,0,94.4,0,141.6,0c40.9,0,81.8,0,122.8,0c13.4,0,26.8,0,40.2,0     c6.3,0,12.9,0.6,19.1,0c0.3,0,0.6,0,0.9,0c-2.5-2.5-5-5-7.5-7.5c-0.1,8.6-1.2,15.7-3.8,24.3c2.4-1.8,4.8-3.7,7.2-5.5     c-33.9,0-67.8,0-101.7,0c-6.1,0-12.4-0.7-17.7,3.2c-7.2,5.2-8.8,15.5-3.6,22.6c3.3,4.5,8.2,6.6,13.7,6.7c16.4,0.5,32.9,0,49.4,0     c17.3,0,34.7,0,52,0c4.1,0,7.5-3.4,7.5-7.5c0,0,0,0,0,0c-0.3,1.3-0.7,2.5-1,3.8c1.5-3,3.1-5.9,4.6-8.8c-4.6-1.9-9.1-3.9-13.7-5.8     c-4.7,11.2-13.1,21.4-22.5,29.1c-2,1.6-4.1,3.1-6.2,4.6c-1.4,0.9-2.8,1.7-4.2,2.6c-0.5,0.3-3.1,1.9-1.7,1.1     c1.2-0.7-1.6,0.7-1.5,0.6c-0.6,0.3-1.3,0.6-1.9,1c0.7-0.3,2.6-1.2-1,0.5c-1.2,0.6-2.5,1.1-3.7,1.7c2.4-1,0.5-0.2-0.7,0.3     c-1.2,0.5-2.5,0.9-3.8,1.4c-10.9,3.7-20.5,4.4-31.9,4.4c-28.1,0-56.3,0-84.4,0c-43.1,0-86.2,0-129.3,0c-34.2,0-68.5,0-102.7,0     c-4.4,0-8.7,0-13.1,0c-1.8,0-4.1,0.4-6,0c-0.6-0.1,0.3-0.2,0.4-0.2c-3.9-1.4-7.6-3.3-11.2-5.3c-6.6-3.7-12.6-8.3-18-13.6     c-10.7-10.6-18.4-23.8-22.3-38.3c-2-7.5-2.9-15-2.9-22.7C18.2,351.5,3.2,351.5,3.2,361.1z" fill="#020202"/></g></g><g><g><path d="M497.2,394.9C497.2,394.9,497.2,394.9,497.2,394.9c-2.4-3.2-4.8-6.3-7.2-9.5c-0.6,1.8-1.2,3.6-2,5.4     c-0.7,1.7-0.1,4.3,0.8,5.8c0.9,1.6,2.7,3,4.5,3.4c1.9,0.4,4.1,0.3,5.8-0.8c1.7-1.1,2.7-2.6,3.4-4.5c0.7-1.8,1.4-3.6,2-5.4     c1.5-4.7-2.5-9.5-7.2-9.5c0,0,0,0-0.1,0c-3.9,0-7.7,3.4-7.5,7.5C489.9,391.5,493,394.9,497.2,394.9L497.2,394.9z" fill="#020202"/></g></g><g><path d="M352.4,396.2c0,4.8-3.9,8.8-8.8,8.8H238.5c-4.8,0-8.8-3.9-8.8-8.8c0-4.9,3.9-8.8,8.8-8.8h105.1    C348.4,387.4,352.4,391.3,352.4,396.2z" fill="#754C29"/><g><path d="M344.9,396.2c-0.2,2.3-8.1,1.3-10,1.3c-8.6,0-17.1,0-25.7,0c-19.8,0-39.7,0-59.5,0c-2.8,0-5.6,0-8.4,0     c-0.8,0-2.6,0.3-3.4-0.1c-4.2-2.5,5.8-2.4,6.8-2.4c18.7,0,37.5,0,56.2,0c10.5,0,21,0,31.4,0C334.4,394.9,344.7,393.7,344.9,396.2     c0.7,9.6,15.7,9.6,15,0c-0.7-9.2-7-15.8-16.3-16.3c-1.7-0.1-3.4,0-5,0c-9,0-18,0-27,0c-22,0-44,0-66,0c-8.7,0-17.6,0.2-21.9,9.7     c-3.9,8.8,0.9,19.5,10.3,22.2c2.5,0.7,5,0.6,7.5,0.6c20.5,0,41,0,61.4,0c11.1,0,22.2,0,33.3,0c2.4,0,4.7,0.1,7.1,0     c9.4-0.4,15.8-7,16.5-16.3C360.6,386.5,345.6,386.6,344.9,396.2z" fill="#020202"/></g></g></g></svg>